<svg xmlns="http://www.w3.org/2000/svg" width="790" height="200" version="1"><path fill="#00367b" d="M59.285-126.429h.018"/><path fill="#ed6d27" d="M0 0h789.97v200H0z"/><path clip-rule="evenodd" d="M80.85 89.075h-2.322c-5.008 0-6.624-.345-6.624-5.007 0-7.157 5.556-12.698 11.646-12.698 5.886 0 10.36 4.473 10.36 11.442 0 6.09-1.429 6.263-11.27 6.263M118.458 107c6.97 0 9.999-3.579 9.999-13.781 0-21.833-18.066-39.382-44.907-39.382-16.653 0-32.224 7.864-41.893 21.473-6.09 8.585-9.307 18.615-9.307 28.833 0 27.563 20.75 49.24 50.29 49.24 11.82 0 22.383-3.25 31.502-9.324 7.518-5.023 11.286-10.736 11.286-15.226 0-5.54-3.407-9.292-7.519-9.292-4.646 0-11.646 7.864-23.089 7.864-12.714 0-22.367-9.841-22.367-17.894 0-2.166 1.585-2.51 5.54-2.51h40.465zm67.823-11.63c-5.901-1.084-10.563-1.617-14.314-1.617-22.383 0-39.382 13.247-39.382 30.246 0 16.481 12.164 28.127 31.69 28.127 8.932 0 14.127-2.166 20.39-6.639 1.805-1.24 3.06-2.684 4.661-2.684 1.978 0 3.752 3.03 7.158 6.263 3.045 2.888 6.624 3.798 11.63 3.798 17.36 0 30.074-11.85 30.074-20.452 0-3.03-1.789-5.352-5.368-6.263-5.195-1.428-5.383-3.94-5.383-16.999v-2.7c0-5.885.549-12.87.549-20.75 0-20.938-15.037-32.035-43.494-32.035-27.39 0-44.75 11.097-44.75 23.261 0 6.812 4.835 11.647 11.098 11.647 5.917 0 10.563-3.045 15.758-9.324 4.113-5.007 6.797-9.48 12.165-9.48 5.73 0 7.864 5.195 7.864 16.638 0 2.668-.157 5.54-.346 8.962m-.172 18.082c0 12.353-.361 17.36-6.64 17.36-4.646 0-7.157-3.579-7.157-10.563 0-7.346 3.406-11.459 9.15-11.459 4.097 0 4.647.361 4.647 4.662m138.895 8.037c0-14.158-8.052-22.556-25.051-31.157-9.67-4.819-15.76-6.608-15.76-11.27 0-2.684 2.512-4.834 5.369-4.834 5.745 0 8.586 5.007 13.436 9.307 3.218 2.857 6.247 4.301 9.841 4.301 6.263 0 10.375-4.112 10.375-10.375 0-11.458-10.547-23.638-17.36-23.638-2.856 0-6.262 2.856-9.841 2.856-3.767 0-9.12-2.323-15.759-2.323-20.578 0-36.682 14.676-36.682 31.518 0 12.871 8.052 23.968 23.45 31.675 7.864 3.94 13.593 4.819 13.593 10.752 0 1.962-1.978 3.908-4.819 3.908-3.94 0-8.617-3.014-14.157-8.931-3.94-4.112-6.797-7.88-12.526-7.88-5.195 0-7.707 3.768-7.707 10.925 0 12.887 10.925 25.443 17.376 25.443 2.857 0 5.729-2.181 8.397-2.181 2.684 0 9.135 3.264 19.715 3.264 23.261 0 38.11-13.451 38.11-31.36m34.547.376c8.052 17.549 13.42 29.195 13.42 36.196 0 3.908-1.774 6.074-4.458 6.074-3.94 0-2.872-5.73-5.917-12.353-2.684-5.949-7.88-9.166-14.315-9.166-8.774 0-16.653 7.706-16.653 17.94 0 14.504 11.458 25.051 29.712 25.051 17.533 0 30.074-9.307 40.465-27.923 10.36-18.992 15.037-42.27 23.45-64.998 3.751-9.857 5.007-13.436 12.353-16.292 5.368-1.962 8.758-3.406 8.758-10.203 0-7.33-6.435-10.909-20.405-10.909-15.037 0-22.728 4.097-22.728 10.737 0 5.368 7.158 7.33 7.158 11.803 0 .722-.722 5.007-3.39 10.752-2.34 5.18-4.301 7.864-7.52 7.864-3.766 0-5.744-2.684-7.879-8.052-2.338-5.73-3.578-9.497-3.578-11.459 0-3.217 5.901-3.578 5.901-10.202 0-9.48-9.307-11.631-28.99-11.631-23.811 0-35.976 5.368-35.976 14.864 0 6.436 4.097 7.519 8.225 9.67 5.007 2.495 6.074 6.78 8.586 12.336l13.78 29.901zm145.346-12.54c0 13.231-4.834 20.231-12.353 20.231-2.856 0-4.834-1.993-4.834-4.489 0-3.39 1.255-6.796 1.255-10.03 0-11.442-8.585-20.043-20.938-20.043-11.992 0-20.766 8.946-20.766 22.367 0 21.488 19.165 36.729 49.945 36.729 26.134 0 42.772-10.407 49.223-30.467 3.94-12.164 2.323-33.997 3.406-64.605.345-9.135.345-11.992 6.247-15.398 4.3-2.496 6.985-3.751 6.985-10.202 0-10.375-11.082-13.06-36.148-13.06-24.879 0-36.525 3.58-36.525 14.85 0 6.09 3.233 7.345 7.707 9.307 6.074 2.511 6.796 4.3 6.796 14.503v50.306zm115.1-20.249h-2.339c-4.991 0-6.608-.345-6.608-5.007 0-7.157 5.54-12.698 11.63-12.698 5.918 0 10.376 4.473 10.376 11.442 0 6.09-1.428 6.263-11.27 6.263h-1.79zM657.589 107c6.985 0 10.03-3.579 10.03-13.781 0-21.833-18.082-39.382-44.938-39.382-16.638 0-32.224 7.864-41.893 21.473-6.09 8.585-9.308 18.615-9.308 28.833 0 27.563 20.766 49.24 50.306 49.24 11.82 0 22.383-3.25 31.502-9.324 7.534-5.023 11.286-10.736 11.286-15.226 0-5.54-3.422-9.292-7.519-9.292-4.677 0-11.646 7.864-23.104 7.864-12.699 0-22.367-9.841-22.367-17.894 0-2.166 1.6-2.51 5.556-2.51h40.449zm27.201-30.78v43.667c0 21.66 11.458 33.15 32.758 33.15 21.488 0 37.231-12.212 37.231-21.52 0-6.435-2.856-10.202-6.074-10.202-3.94 0-7.346 3.594-11.835 3.594-6.435 0-9.48-3.594-9.48-10.751v-32.93c0-4.474 1.444-4.302 5.901-4.474l13.97-.534c6.09-.188 7.346-.55 7.346-7.173v-7.864c0-4.834-.895-5.007-6.09-5.007h-19.872V47.92c0-10.72-.36-13.938-8.397-13.938-8.602 0-20.06 8.036-39.036 21.3-8.225 5.713-10.737 6.246-10.737 13.059 0 8.052 1.256 7.518 14.315 7.879" fill="#fff" fill-rule="evenodd"/><path fill="#005fa2" d="M269.819 257.761h.008-.008"/></svg>