<svg xmlns="http://www.w3.org/2000/svg" viewBox="0 0 32 32"><g fill="none" fill-rule="evenodd"><path fill="#FF5300" d="M0 32h32V0H0z"/><path fill="#F60" d="M14.8 0L0 8.067V32h12.067L32 20.334v-7.867L16.2 0z"/><path fill="#F60" d="M0 23.133L6.133 32h9.134L0 21.2z"/><path fill="#FF7C00" d="M0 23.133L6.133 32h5.934l1.733-1L0 21.2z"/><path fill="#FFF" d="M15.33 12.67h2.2c.94 0 1.4-.4 1.4-1.27 0-.73-.2-1.4-.66-1.87-.47-.53-1-.73-1.8-.73s-1.4.33-1.87 1c-.4.6-.6 1.2-.6 1.8 0 .4.07.73.27.93.2.07.53.14 1.06.14m9.6 4.06h-10.2c-.46 0-.66.2-.66.6 0 .94.53 1.8 1.53 2.67 1 .87 2.13 1.27 3.27 1.27.66 0 1.46-.14 2.33-.4.87-.27 1.53-.6 2.13-1 .54-.34.87-.54 1.2-.54.4 0 .74.2 1.07.67.4.47.53.93.53 1.4 0 1.07-.6 2-1.93 3a12.74 12.74 0 0 1-7.93 2.6c-3 0-5.54-.87-7.6-2.67a10.83 10.83 0 0 1-3.73-8.27c0-2.4.73-4.6 2.2-6.53A11.27 11.27 0 0 1 12 5.8a12.5 12.5 0 0 1 4.73-.93c2.74 0 5.07.73 7 2.33 1 .73 1.74 1.67 2.34 2.8.66 1.2 1 2.4 1 3.53 0 .94-.2 1.67-.6 2.34-.4.6-.94.86-1.54.86"/></g></svg>